<svg width="224" height="225" viewBox="0 0 224 225" fill="none" xmlns="http://www.w3.org/2000/svg">
<path d="M111.985 148.96C132.388 148.96 148.928 132.416 148.928 112.008C148.928 91.6007 132.388 75.0569 111.985 75.0569C91.5812 75.0569 75.041 91.6007 75.041 112.008C75.041 132.416 91.5812 148.96 111.985 148.96Z" stroke="white" stroke-width="5" stroke-miterlimit="10"/>
<path d="M111.984 134.851C124.598 134.851 134.822 124.624 134.822 112.008C134.822 99.3926 124.598 89.1655 111.984 89.1655C99.3714 89.1655 89.1465 99.3926 89.1465 112.008C89.1465 124.624 99.3714 134.851 111.984 134.851Z" stroke="white" stroke-width="5" stroke-miterlimit="10"/>
<path d="M111.984 134.851C124.598 134.851 134.822 124.624 134.822 112.008C134.822 99.3926 124.598 89.1655 111.984 89.1655C99.3714 89.1655 89.1465 99.3926 89.1465 112.008C89.1465 124.624 99.3714 134.851 111.984 134.851Z" stroke="white" stroke-width="5" stroke-miterlimit="10"/>
<path d="M111.985 163.273C140.291 163.273 163.238 140.321 163.238 112.008C163.238 83.6957 140.291 60.7437 111.985 60.7437C83.678 60.7437 60.731 83.6957 60.731 112.008C60.731 140.321 83.678 163.273 111.985 163.273Z" stroke="white" stroke-width="5" stroke-miterlimit="10"/>
<path d="M111.985 176.973C147.855 176.973 176.935 147.887 176.935 112.008C176.935 76.1298 147.855 47.0443 111.985 47.0443C76.1137 47.0443 47.0347 76.1298 47.0347 112.008C47.0347 147.887 76.1137 176.973 111.985 176.973Z" stroke="white" stroke-width="5" stroke-miterlimit="10"/>
<path d="M111.984 191.803C156.044 191.803 191.761 156.078 191.761 112.008C191.761 67.9393 156.044 32.2142 111.984 32.2142C67.9248 32.2142 32.2075 67.9393 32.2075 112.008C32.2075 156.078 67.9248 191.803 111.984 191.803Z" stroke="white" stroke-width="5" stroke-miterlimit="10"/>
<path d="M111.985 206.87C164.364 206.87 206.825 164.399 206.825 112.008C206.825 59.6179 164.364 17.1471 111.985 17.1471C59.6057 17.1471 17.144 59.6179 17.144 112.008C17.144 164.399 59.6057 206.87 111.985 206.87Z" stroke="white" stroke-width="5" stroke-miterlimit="10"/>
<path d="M111.985 221.517C172.451 221.517 221.469 172.488 221.469 112.008C221.469 51.5286 172.451 2.5 111.985 2.5C51.5179 2.5 2.5 51.5286 2.5 112.008C2.5 172.488 51.5179 221.517 111.985 221.517Z" stroke="white" stroke-width="5" stroke-miterlimit="10"/>
</svg>
