<svg width="539" height="236" viewBox="0 0 539 236" fill="none" xmlns="http://www.w3.org/2000/svg">
<path d="M117.767 233.084C181.427 233.084 233.033 181.466 233.033 117.792C233.033 54.1179 181.427 2.5 117.767 2.5C54.1067 2.5 2.5 54.1179 2.5 117.792C2.5 181.466 54.1067 233.084 117.767 233.084Z" stroke="white" stroke-width="5" stroke-miterlimit="10"/>
<path d="M164.412 233.084C228.072 233.084 279.679 181.466 279.679 117.792C279.679 54.1179 228.072 2.5 164.412 2.5C100.752 2.5 49.1455 54.1179 49.1455 117.792C49.1455 181.466 100.752 233.084 164.412 233.084Z" stroke="white" stroke-width="5" stroke-miterlimit="10"/>
<path d="M218.056 233.084C281.716 233.084 333.322 181.466 333.322 117.792C333.322 54.1179 281.716 2.5 218.056 2.5C154.396 2.5 102.789 54.1179 102.789 117.792C102.789 181.466 154.396 233.084 218.056 233.084Z" stroke="white" stroke-width="5" stroke-miterlimit="10"/>
<path d="M278.698 233.084C342.358 233.084 393.965 181.466 393.965 117.792C393.965 54.1179 342.358 2.5 278.698 2.5C215.038 2.5 163.432 54.1179 163.432 117.792C163.432 181.466 215.038 233.084 278.698 233.084Z" stroke="white" stroke-width="5" stroke-miterlimit="10"/>
<path d="M348.311 233.084C411.971 233.084 463.577 181.466 463.577 117.792C463.577 54.1179 411.971 2.5 348.311 2.5C284.651 2.5 233.044 54.1179 233.044 117.792C233.044 181.466 284.651 233.084 348.311 233.084Z" stroke="white" stroke-width="5" stroke-miterlimit="10"/>
<path d="M420.982 233.084C484.642 233.084 536.248 181.466 536.248 117.792C536.248 54.1179 484.642 2.5 420.982 2.5C357.321 2.5 305.715 54.1179 305.715 117.792C305.715 181.466 357.321 233.084 420.982 233.084Z" stroke="white" stroke-width="5" stroke-miterlimit="10"/>
</svg>
