<svg width="918" height="102" viewBox="0 0 918 102" fill="none" xmlns="http://www.w3.org/2000/svg">
<path d="M123.592 32.6811C143.904 32.6811 158.68 46.8028 157.631 72.4546H108.172C110.017 79.585 114.959 85.7166 124.831 85.7166C130.367 85.7166 135.41 84.1869 139.228 79.4206H156.291L156.001 80.9504C153.043 94.0228 138.166 101.267 124.818 101.267C103.646 101.267 89.4393 86.9556 89.4393 67.0309C89.4393 47.1062 103.646 32.6937 123.579 32.6937L123.592 32.6811ZM266.725 32.6811C287.126 32.6811 301.813 46.8028 300.865 72.4546H251.393C253.213 79.585 258.118 85.7166 268.065 85.7166C273.601 85.7166 278.645 84.1869 282.373 79.4206H299.538L299.247 80.9504C296.29 94.0228 281.413 101.267 268.065 101.267C246.893 101.267 232.686 86.9556 232.686 67.0309C232.686 47.0936 246.893 32.6937 266.725 32.6937V32.6811ZM193.971 32.3018C209.037 32.3018 222.296 37.7381 226.101 51.0886L226.48 52.5173H207.697C203.691 47.5614 198.357 46.8913 193.971 46.8913C189.875 46.8913 183.391 47.9406 183.391 51.9483C183.391 55.6653 187.676 56.9042 191.405 57.3846L202.275 58.5351C219.541 60.0649 227.163 66.8286 227.163 80.0907C227.163 95.3503 211.995 101.077 197.029 101.077C182.064 101.077 166.517 94.4021 163.559 80.8619L163.268 79.4333H182.531C185.198 87.0694 197.497 86.4878 197.029 86.4878C204.272 86.4878 208.759 84.288 208.759 80.7607C208.759 78.4724 208.001 75.8049 200.556 74.844L189.205 73.6936C174.24 72.6442 165.177 64.73 165.177 52.8965C165.177 38.3955 178.904 32.2891 193.971 32.2891V32.3018ZM449.522 99.3453H431.017L431.965 90.091C429.387 95.6284 421.095 101.065 410.705 101.065C393.54 101.065 379.624 87.9038 379.624 67.1068C379.624 46.3097 393.351 33.1488 410.705 33.1488C420.147 33.1488 425.962 36.1957 431.106 41.4423V5.76501H449.51V99.3327L449.522 99.3453ZM57.2204 5.77767C75.3333 5.77767 86.115 16.5618 86.115 30.8605C86.115 45.1593 75.3333 55.9434 57.2204 55.9434H48.0692L93.5599 99.3453H61.4294L26.8091 66.4367C24.3317 64.1484 23.1814 61.4808 23.1814 59.1925C23.1814 55.956 25.4692 53.0862 29.8552 51.8472L47.69 47.0809C54.4649 45.2731 59.129 40.0264 59.129 33.1615C59.129 24.7668 52.2656 19.8994 43.7717 19.8994H0V5.77767H57.2204ZM345.585 32.7695C361.802 32.7695 373.14 44.5904 373.14 61.4808V99.3453H354.635V64.6288C354.635 55.0963 349.579 49.3692 340.618 49.3692C331.656 49.3692 325.842 55.286 325.842 64.6288V99.3453H307.729V34.1097H326.132L325.273 44.5019C327.94 39.2552 336.244 32.7695 345.585 32.7695ZM415.104 49.3692C403.943 49.3692 398.04 57.6628 398.04 67.1068C398.04 77.2208 404.714 84.9454 415.104 84.9454C425.494 84.9454 431.599 77.1197 431.599 67.1068C431.599 57.0939 425.304 49.3692 415.104 49.3692ZM123.592 47.4602C114.58 47.4602 109.423 52.8459 107.83 60.0522H139.025C138.836 59.2178 138.596 58.3328 138.28 57.3846C135.992 50.899 130.645 47.4602 123.592 47.4602ZM266.725 47.4602C257.789 47.4602 252.657 52.8459 251.052 60.0522H282.247C282.057 59.2178 281.817 58.3328 281.501 57.3846C279.213 50.899 273.867 47.4602 266.725 47.4602Z" fill="white"/>
<path d="M532.751 99.6487V99.9142H505.942V99.6487C512.338 96.9811 513.539 92.316 513.539 83.5042V22.9336C513.539 14.1344 512.338 9.45664 505.942 6.78906V6.52356H532.751V6.78906C526.356 9.45664 525.155 14.1217 525.155 22.9336V83.5042C525.155 92.3034 526.356 96.9811 532.751 99.6487Z" fill="white"/>
<path d="M558.359 35.0832V50.8232C561.431 40.0138 568.635 33.743 578.229 33.743C588.505 33.743 595.836 40.2793 595.836 53.6172V86.0327C595.836 94.8319 596.898 96.9685 602.776 99.6361V99.9016H577.572V99.6361C583.437 96.9685 584.511 94.8319 584.511 86.0327V54.6791C584.511 47.0809 581.844 40.4057 573.312 40.4057C564.78 40.4057 558.372 47.8774 558.372 62.4164V86.0327C558.372 94.8319 559.573 96.9685 565.311 99.6361V99.9016H540.234V99.6361C545.972 96.9685 547.034 94.8319 547.034 86.0327V49.6095C547.034 41.3412 545.302 37.8645 539.438 35.336V35.0705H558.372L558.359 35.0832Z" fill="white"/>
<path d="M619.448 47.0936C619.448 53.3643 621.85 56.8284 633.453 60.6971C647.862 65.3622 653.727 71.6329 653.727 81.6458C653.727 94.8573 643.059 101.254 632.391 101.254C624.39 101.254 620.118 97.9168 616.516 97.9168C614.38 97.9168 612.509 99.3833 611.182 101.254L609.842 75.9061H610.107C615.037 89.775 622.772 98.5868 632.379 98.5868C639.444 98.5868 644.386 93.6562 644.386 86.1845C644.386 78.1817 638.648 75.3751 628.776 71.911C615.972 67.3723 610.638 61.9107 610.638 51.8978C610.638 40.2919 619.979 33.7557 629.977 33.7557C637.308 33.7557 640.645 37.0934 644.513 37.0934C646.775 37.0934 648.381 35.7533 650.378 33.7557V55.64H649.973C645.84 44.7042 638.901 36.436 629.964 36.436C623.291 36.436 619.423 41.1011 619.423 47.1063L619.448 47.0936Z" fill="white"/>
<path d="M679.739 86.0453C679.739 94.8445 680.94 96.9811 686.678 99.6487V99.9142H661.601V99.6487C667.339 96.9811 668.401 94.8445 668.401 86.0453V49.6221C668.401 41.3538 666.67 37.8771 660.805 35.3486V35.0831H679.739V86.0453ZM673.596 5.20874C678.134 5.20874 681.736 8.81187 681.736 13.2115C681.736 17.6111 678.134 21.0878 673.596 21.0878C669.058 21.0878 665.595 17.6237 665.595 13.2115C665.595 8.79923 669.198 5.20874 673.596 5.20874Z" fill="white"/>
<path d="M738.286 14.539C738.286 6.27071 736.416 2.93308 730.69 0.265502V0H749.624V85.3753C749.624 93.5171 751.09 96.9812 756.829 99.6487V99.9142H738.286V83.6432C736.024 94.0481 728.554 101.254 718.151 101.254C704.551 101.254 692.947 89.1175 692.947 67.7642C692.947 46.4109 704.69 33.743 718.29 33.743C728.693 33.743 736.024 40.8102 738.299 51.3541V14.539H738.286ZM738.286 73.5039V61.898C738.286 46.9545 729.754 38.9518 721.88 38.9518C711.604 38.9518 705.347 50.6967 705.347 67.7642C705.347 84.8316 711.477 96.3111 721.753 96.3111C729.628 96.3111 738.286 88.3083 738.286 73.5039Z" fill="white"/>
<path d="M813.785 64.8311H774.841C774.841 82.4422 781.515 95.1101 794.446 95.1101C802.712 95.1101 809.651 89.9013 812.988 78.8391L813.785 79.1046C811.649 93.239 803.243 101.254 790.313 101.254C775.511 101.254 762.973 88.852 762.973 67.4987C762.973 47.6246 775.372 33.743 790.047 33.743C806.454 33.743 813.785 46.4109 813.785 64.8311ZM801.903 61.8981C801.903 48.4211 800.298 36.4233 789.895 36.4233C782.021 36.4233 775.625 46.9672 774.955 61.8981H801.891H801.903Z" fill="white"/>
<path d="M858.858 47.2327C858.858 43.7686 856.595 41.493 852.462 41.493C845.257 41.493 838.722 52.4288 838.722 66.4368V86.3109C838.722 95.1101 841.794 97.1203 848.329 99.6488V99.9143H820.584V99.6488C826.323 96.9812 827.385 94.8446 827.385 86.0454V49.6221C827.385 41.3539 825.653 37.8772 819.788 35.3487V35.0832H838.722V54.5654C841.389 43.756 847.254 33.7557 856.722 33.7557C863.256 33.7557 868.186 37.8899 868.186 44.1606C868.186 50.4313 863.914 54.2999 859.389 54.2999C857.253 54.2999 855.66 53.5034 855.116 52.6943C857.114 52.0242 858.845 50.0267 858.845 47.2201L858.858 47.2327Z" fill="white"/>
<path d="M883.671 47.0936C883.671 53.3643 886.072 56.8284 897.676 60.6971C912.085 65.3622 917.95 71.6329 917.95 81.6458C917.95 94.8573 907.282 101.254 896.614 101.254C888.613 101.254 884.34 97.9168 880.738 97.9168C878.602 97.9168 876.731 99.3833 875.404 101.254L874.064 75.9061H874.33C879.259 89.775 886.995 98.5868 896.601 98.5868C903.667 98.5868 908.609 93.6562 908.609 86.1845C908.609 78.1817 902.871 75.3751 892.999 71.911C880.195 67.3723 874.861 61.9107 874.861 51.8978C874.861 40.2919 884.201 33.7557 894.2 33.7557C901.531 33.7557 904.868 37.0934 908.735 37.0934C910.998 37.0934 912.603 35.7533 914.6 33.7557V55.64H914.196C910.063 44.7042 903.123 36.436 894.187 36.436C887.513 36.436 883.645 41.1011 883.645 47.1063L883.671 47.0936Z" fill="white"/>
</svg>
