<svg width="1090" height="168" viewBox="0 0 1090 168" fill="none" xmlns="http://www.w3.org/2000/svg">
<path d="M78.1838 166.45C120.535 166.45 154.868 132.11 154.868 89.7495C154.868 47.389 120.535 13.049 78.1838 13.049C35.8325 13.049 1.5 47.389 1.5 89.7495C1.5 132.11 35.8325 166.45 78.1838 166.45Z" stroke="white" stroke-width="3" stroke-miterlimit="10"/>
<path d="M104.561 166.45C146.912 166.45 181.245 132.11 181.245 89.7495C181.245 47.389 146.912 13.049 104.561 13.049C62.2095 13.049 27.877 47.389 27.877 89.7495C27.877 132.11 62.2095 166.45 104.561 166.45Z" stroke="white" stroke-width="3" stroke-miterlimit="10"/>
<path d="M130.936 166.45C173.287 166.45 207.62 132.11 207.62 89.7495C207.62 47.389 173.287 13.049 130.936 13.049C88.5845 13.049 54.252 47.389 54.252 89.7495C54.252 132.11 88.5845 166.45 130.936 166.45Z" stroke="white" stroke-width="3" stroke-miterlimit="10"/>
<path d="M157.349 166.45C199.7 166.45 234.033 132.11 234.033 89.7495C234.033 47.389 199.7 13.049 157.349 13.049C114.998 13.049 80.665 47.389 80.665 89.7495C80.665 132.11 114.998 166.45 157.349 166.45Z" stroke="white" stroke-width="3" stroke-miterlimit="10"/>
<path d="M183.725 166.45C226.076 166.45 260.409 132.11 260.409 89.7495C260.409 47.389 226.076 13.049 183.725 13.049C141.374 13.049 107.041 47.389 107.041 89.7495C107.041 132.11 141.374 166.45 183.725 166.45Z" stroke="white" stroke-width="3" stroke-miterlimit="10"/>
<path d="M210.102 166.45C252.453 166.45 286.786 132.11 286.786 89.7495C286.786 47.389 252.453 13.049 210.102 13.049C167.75 13.049 133.418 47.389 133.418 89.7495C133.418 132.11 167.75 166.45 210.102 166.45Z" stroke="white" stroke-width="3" stroke-miterlimit="10"/>
<path d="M1070.71 36.7368C1060.61 36.7368 1052.35 28.51 1052.35 18.3684C1052.35 8.22676 1060.57 0 1070.71 0C1080.85 0 1089.08 8.22676 1089.08 18.3684C1089.08 28.51 1080.85 36.7368 1070.71 36.7368ZM1070.71 3.51053C1062.52 3.51053 1055.86 10.1771 1055.86 18.3684C1055.86 26.5597 1062.52 33.2263 1070.71 33.2263C1078.9 33.2263 1085.57 26.5597 1085.57 18.3684C1085.57 10.1771 1078.9 3.51053 1070.71 3.51053Z" fill="white"/>
<path d="M1072.7 9.60986C1076.1 9.60986 1078.12 11.6309 1078.12 14.3259C1078.12 17.0209 1076.1 19.0422 1072.7 19.0422H1071L1079.44 27.0918L1078.27 27.1625H1073.52L1067.03 20.9925C1066.57 20.5669 1066.35 20.0705 1066.35 19.645C1066.35 19.0421 1066.78 18.5102 1067.59 18.262L1070.93 17.3755C1072.2 17.0209 1073.05 16.0635 1073.05 14.7514C1073.05 13.1912 1071.78 12.2694 1070.18 12.2694H1061.99V9.71613L1062.84 9.60986H1072.7Z" fill="white"/>
<path d="M388.713 165.316V165.741H344.256V165.316C354.856 160.883 356.877 153.153 356.877 138.543V38.0843C356.877 23.4747 354.892 15.7444 344.256 11.3119V10.8864H388.713V11.3119C378.113 15.7444 376.092 23.4747 376.092 38.0843V138.543C376.092 153.153 378.078 160.883 388.713 165.316Z" fill="white"/>
<path d="M431.149 58.2258V84.3245C436.255 66.4171 448.167 55.9918 464.12 55.9918C481.138 55.9918 493.333 66.8426 493.333 88.9698V142.728C493.333 157.337 495.106 160.883 504.82 165.28V165.706H463.021V165.28C472.771 160.848 474.508 157.302 474.508 142.728V90.7428C474.508 78.119 470.076 67.0554 455.931 67.0554C441.785 67.0554 431.149 79.4312 431.149 103.544V142.692C431.149 157.302 433.135 160.848 442.636 165.245V165.67H401.05V165.245C410.552 160.812 412.324 157.266 412.324 142.692V82.3035C412.324 68.5804 409.453 62.8356 399.703 58.6158V58.1903H431.114L431.149 58.2258Z" fill="white"/>
<path d="M532.474 78.1188C532.474 88.5087 536.444 94.2534 555.695 100.672C579.59 108.402 589.304 118.827 589.304 135.423C589.304 157.337 571.613 167.94 553.923 167.94C540.663 167.94 533.573 162.408 527.617 162.408C524.072 162.408 520.987 164.855 518.754 167.94L516.556 125.884H516.981C525.171 148.898 538.004 163.507 553.923 163.507C565.657 163.507 573.847 155.316 573.847 142.94C573.847 129.678 564.346 125.033 547.967 119.253C526.73 111.735 517.867 102.658 517.867 86.0621C517.867 66.8072 533.36 55.9562 549.952 55.9562C562.112 55.9562 567.643 61.488 574.06 61.488C577.818 61.488 580.476 59.2894 583.809 55.9562V92.2322H583.135C576.293 74.0765 564.771 60.3887 549.952 60.3887C538.891 60.3887 532.474 68.1192 532.474 78.0836V78.1188Z" fill="white"/>
<path d="M632.484 142.728C632.484 157.337 634.47 160.883 643.971 165.28V165.706H602.385V165.28C611.887 160.848 613.659 157.302 613.659 142.728V82.3388C613.659 68.6157 610.788 62.8711 601.038 58.6514V58.2259H632.449V142.728H632.484ZM622.31 8.65247C629.826 8.65247 635.817 14.6098 635.817 21.9146C635.817 29.2194 629.861 34.9639 622.31 34.9639C614.758 34.9639 609.05 29.2194 609.05 21.9146C609.05 14.6098 615.006 8.65247 622.31 8.65247Z" fill="white"/>
<path d="M729.589 24.1482C729.589 10.4251 726.505 4.89332 716.968 0.460784V0.0352783H748.379V141.628C748.379 155.138 750.825 160.883 760.327 165.316V165.741H729.589V138.756C725.831 156.025 713.458 167.975 696.193 167.975C673.645 167.975 654.395 147.834 654.395 112.444C654.395 77.055 673.858 56.027 696.441 56.027C713.707 56.027 725.867 67.7643 729.625 85.2462V24.1837L729.589 24.1482ZM729.589 121.948V102.693C729.589 77.9061 715.444 64.6438 702.397 64.6438C685.38 64.6438 674.957 84.1116 674.957 112.444C674.957 140.777 685.132 159.784 702.149 159.784C715.196 159.784 729.589 146.522 729.589 121.948Z" fill="white"/>
<path d="M854.773 107.551H790.178C790.178 136.77 801.24 157.763 822.688 157.763C836.408 157.763 847.895 149.146 853.426 130.777L854.737 131.203C851.192 154.642 837.259 167.94 815.811 167.94C791.242 167.94 770.467 147.373 770.467 111.948C770.467 78.97 791.029 55.9562 815.385 55.9562C842.577 55.9562 854.773 76.9843 854.773 107.516V107.551ZM835.097 102.693C835.097 80.353 832.438 60.4242 815.172 60.4242C802.126 60.4242 791.49 77.9063 790.391 102.693H835.061H835.097Z" fill="white"/>
<path d="M929.541 78.3668C929.541 72.6223 925.783 68.8635 918.941 68.8635C906.993 68.8635 896.145 87.0191 896.145 110.246V143.224C896.145 157.833 901.25 161.131 912.063 165.351V165.776H866.045V165.351C875.547 160.918 877.32 157.372 877.32 142.798V82.4094C877.32 68.6862 874.448 62.9417 864.698 58.7219V58.2964H896.109V90.6007C900.541 72.6932 910.255 56.0979 925.96 56.0979C936.809 56.0979 944.998 62.9417 944.998 73.367C944.998 83.7924 937.908 90.1752 930.392 90.1752C926.847 90.1752 924.188 88.8631 923.301 87.5156C926.634 86.4164 929.506 83.0831 929.506 78.4378L929.541 78.3668Z" fill="white"/>
<path d="M970.702 78.1188C970.702 88.5087 974.673 94.2534 993.924 100.672C1017.82 108.402 1027.53 118.827 1027.53 135.423C1027.53 157.337 1009.84 167.94 992.151 167.94C978.892 167.94 971.801 162.408 965.845 162.408C962.3 162.408 959.216 164.855 956.982 167.94L954.784 125.884H955.21C963.399 148.898 976.233 163.507 992.151 163.507C1003.89 163.507 1012.08 155.316 1012.08 142.94C1012.08 129.678 1002.57 125.033 986.195 119.253C964.959 111.735 956.096 102.658 956.096 86.0621C956.096 66.8072 971.589 55.9562 988.18 55.9562C1000.34 55.9562 1005.87 61.488 1012.29 61.488C1016.05 61.488 1018.7 59.2894 1022.04 55.9562V92.2322H1021.36C1014.52 74.0765 1003 60.3887 988.18 60.3887C977.119 60.3887 970.702 68.1192 970.702 78.0836V78.1188Z" fill="white"/>
</svg>
