<svg width="274" height="261" viewBox="0 0 274 261" fill="none" xmlns="http://www.w3.org/2000/svg">
<path d="M107.702 237.714C48.588 237.714 0.5 189.615 0.5 130.488C0.5 71.3615 48.588 23.2631 107.702 23.2631C166.816 23.2631 214.904 71.3615 214.904 130.488C214.904 189.615 166.816 237.714 107.702 237.714ZM107.702 25.7401C49.9555 25.7401 2.97659 72.7293 2.97659 130.488C2.97659 188.247 49.9555 235.236 107.702 235.236C165.448 235.236 212.427 188.247 212.427 130.488C212.427 72.7293 165.448 25.7401 107.702 25.7401Z" fill="white" stroke="white" stroke-miterlimit="10"/>
<path d="M130.088 260.104C58.634 260.104 0.5 201.957 0.5 130.488C0.5 59.0192 58.634 0.872437 130.088 0.872437C201.541 0.872437 259.675 59.0192 259.675 130.488C259.675 201.957 201.541 260.104 130.088 260.104ZM130.088 3.34957C60.0015 3.34957 2.97659 60.387 2.97659 130.488C2.97659 200.59 60.0015 257.627 130.088 257.627C200.174 257.627 257.199 200.59 257.199 130.488C257.199 60.387 200.174 3.34957 130.088 3.34957Z" fill="white" stroke="white" stroke-miterlimit="10"/>
<path d="M130.087 214.461C83.7977 214.461 46.1328 176.788 46.1328 130.488C46.1328 84.1884 83.7977 46.5153 130.087 46.5153C176.377 46.5153 214.042 84.1884 214.042 130.488C214.042 176.788 176.377 214.461 130.087 214.461ZM130.087 48.9925C85.1652 48.9925 48.6094 85.5454 48.6094 130.488C48.6094 175.431 85.1544 211.984 130.087 211.984C175.02 211.984 211.566 175.431 211.566 130.488C211.566 85.5454 175.02 48.9925 130.087 48.9925Z" fill="white" stroke="white" stroke-miterlimit="10"/>
<path d="M107.702 191.285C74.1825 191.285 46.9082 164.004 46.9082 130.478C46.9082 96.9508 74.1825 69.6707 107.702 69.6707C141.221 69.6707 168.496 96.9508 168.496 130.478C168.496 164.004 141.221 191.285 107.702 191.285ZM107.702 72.1584C75.55 72.1584 49.3848 98.3186 49.3848 130.488C49.3848 162.658 75.5392 188.818 107.702 188.818C139.865 188.818 166.019 162.658 166.019 130.488C166.019 98.3186 139.865 72.1584 107.702 72.1584Z" fill="white" stroke="white" stroke-miterlimit="10"/>
<path d="M130.087 168.334C109.22 168.334 92.2393 151.35 92.2393 130.478C92.2393 109.605 109.22 92.6213 130.087 92.6213C150.955 92.6213 167.935 109.605 167.935 130.478C167.935 151.35 150.955 168.334 130.087 168.334ZM130.087 95.1092C110.587 95.1092 94.7265 110.973 94.7265 130.478C94.7265 149.982 110.587 165.846 130.087 165.846C149.587 165.846 165.448 149.982 165.448 130.478C165.448 110.973 149.587 95.1092 130.087 95.1092Z" fill="white" stroke="white" stroke-miterlimit="10"/>
<path d="M107.131 145.383C98.9151 145.383 92.2393 138.706 92.2393 130.488C92.2393 122.271 98.9151 115.594 107.131 115.594C115.346 115.594 122.022 122.271 122.022 130.488C122.022 138.706 115.346 145.383 107.131 145.383ZM107.131 118.071C100.283 118.071 94.7157 123.639 94.7157 130.488C94.7157 137.338 100.283 142.906 107.131 142.906C113.979 142.906 119.546 137.338 119.546 130.488C119.546 123.639 113.979 118.071 107.131 118.071Z" fill="white" stroke="white" stroke-miterlimit="10"/>
<path d="M254.981 36.7255C244.859 36.7255 236.622 28.4865 236.622 18.3628C236.622 8.23904 244.859 0 254.981 0C265.102 0 273.339 8.23904 273.339 18.3628C273.339 28.4865 265.102 36.7255 254.981 36.7255ZM254.981 3.511C246.797 3.511 240.132 10.1776 240.132 18.3628C240.132 26.5479 246.787 33.2145 254.981 33.2145C263.175 33.2145 269.829 26.5479 269.829 18.3628C269.829 10.1776 263.164 3.511 254.981 3.511Z" fill="white"/>
<path d="M256.983 9.59605C260.375 9.59605 262.399 11.6208 262.399 14.2917C262.399 16.9627 260.375 18.9874 256.983 18.9874H255.271L263.713 27.0326L262.529 27.1187H257.78L251.298 20.9584C250.835 20.5276 250.62 20.0321 250.62 19.6013C250.62 18.9982 251.05 18.4597 251.869 18.2228L255.207 17.3289C256.477 16.9843 257.349 16.0042 257.349 14.7225C257.349 13.1501 256.068 12.2348 254.474 12.2348H246.27V9.68229L247.131 9.58527H256.983V9.59605Z" fill="white"/>
</svg>
